<svg xmlns="http://www.w3.org/2000/svg" viewBox="0 0 32 32" fill="none">
  <!-- Document body - warm paper color -->
  <path
    d="M6 4C6 2.89543 6.89543 2 8 2H18L26 10V28C26 29.1046 25.1046 30 24 30H8C6.89543 30 6 29.1046 6 28V4Z"
    fill="#f5f4f0"
  />
  <!-- Document border -->
  <path
    d="M6 4C6 2.89543 6.89543 2 8 2H18L26 10V28C26 29.1046 25.1046 30 24 30H8C6.89543 30 6 29.1046 6 28V4Z"
    stroke="#d6d3cd"
    stroke-width="1"
    fill="none"
  />
  <!-- Folded corner -->
  <path
    d="M18 2V8C18 9.10457 18.8954 10 20 10H26L18 2Z"
    fill="#e7e5e0"
  />
  <!-- Accent stripe at top -->
  <rect x="6" y="2" width="12" height="3" rx="1" fill="#b45309"/>
  <!-- Text lines - ink color -->
  <rect x="10" y="14" width="12" height="2" rx="1" fill="#1c1917"/>
  <rect x="10" y="19" width="8" height="2" rx="1" fill="#78716c"/>
  <rect x="10" y="24" width="10" height="2" rx="1" fill="#78716c"/>
</svg>
